# xmcd CD database file
# Copyright (C) 1997 Ti Kan
# 
# Track frame offsets:
#     183
#     11510
#     21260
#     32950
#     43005
#     55540
#     66150
#     77250
#     90153
#     101465
#     114023
#     126945
#     140970
#     152568
# 
# Disc length: 2184 seconds
# 
# Revision: 1
# Processed by: cddbd v1.4b41PL1 Copyright (c) Steve Scherf et al.
# Submitted via: DiscPlay 4.0.2
# 
DISCID=a408860e
DTITLE=Bo DIddley - Bo Diddley
DYEAR=1900
DGENRE=
TTITLE0=Bo Diddley
TTITLE1=Hey Bo Diddley
TTITLE2=Pretty Thing
TTITLE3=Bring It To Jerome
TTITLE4=I'm A Man
TTITLE5=Mona
TTITLE6=Diddley Daddy
TTITLE7=Dearest Darling
TTITLE8=Who Do You Love
TTITLE9=Roadrunner
TTITLE10=Story Of Bo Diddley
TTITLE11=Before You Accuse Me
TTITLE12=I'm Looking For A Woman
TTITLE13=Say Bossman
EXTD=
EXTT0=
EXTT1=
EXTT2=
EXTT3=
EXTT4=
EXTT5=
EXTT6=
EXTT7=
EXTT8=
EXTT9=
EXTT10=
EXTT11=
EXTT12=
EXTT13=
PLAYORDER=
